<svg width="23" height="23" viewBox="0 0 23 23" fill="none" xmlns="http://www.w3.org/2000/svg">
<path d="M2.70581 3.45386H5.93524L8.11128 13.0891C8.3013 13.9304 9.04839 14.5262 9.91094 14.5262H17.834C18.6989 14.5262 19.4478 13.9254 19.6354 13.0811L21.1597 6.22194H6.85793M11.01 19.1396C11.01 19.6492 10.597 20.0623 10.0874 20.0623C9.57777 20.0623 9.16466 19.6492 9.16466 19.1396C9.16466 18.63 9.57777 18.2169 10.0874 18.2169C10.597 18.2169 11.01 18.63 11.01 19.1396ZM18.3916 19.1396C18.3916 19.6492 17.9785 20.0623 17.4689 20.0623C16.9593 20.0623 16.5462 19.6492 16.5462 19.1396C16.5462 18.63 16.9593 18.2169 17.4689 18.2169C17.9785 18.2169 18.3916 18.63 18.3916 19.1396Z" stroke="white" stroke-width="1.5" stroke-linecap="round" stroke-linejoin="round"/>
</svg>
